<?xml version="1.0" encoding="UTF-8"?>
<!DOCTYPE svg PUBLIC "-//W3C//DTD SVG 1.1//EN" "http://www.w3.org/Graphics/SVG/1.1/DTD/svg11.dtd">
<svg version="1.2" width="200mm" height="200mm" viewBox="0 0 20000 20000" preserveAspectRatio="xMidYMid" fill-rule="evenodd" stroke-width="28.222" stroke-linejoin="round" xmlns="http://www.w3.org/2000/svg" xmlns:ooo="http://xml.openoffice.org/svg/export" xmlns:xlink="http://www.w3.org/1999/xlink" xmlns:presentation="http://sun.com/xmlns/staroffice/presentation" xmlns:smil="http://www.w3.org/2001/SMIL20/" xmlns:anim="urn:oasis:names:tc:opendocument:xmlns:animation:1.0" xml:space="preserve">
 <defs class="ClipPathGroup">
  <clipPath id="presentation_clip_path" clipPathUnits="userSpaceOnUse">
   <rect x="0" y="0" width="20000" height="20000"/>
  </clipPath>
  <clipPath id="presentation_clip_path_shrink" clipPathUnits="userSpaceOnUse">
   <rect x="20" y="20" width="19960" height="19960"/>
  </clipPath>
 </defs>
 <defs class="TextShapeIndex">
  <g ooo:slide="id1" ooo:id-list="id3 id4 id5 id6"/>
 </defs>
 <defs class="EmbeddedBulletChars">
  <g id="bullet-char-template-57356" transform="scale(0.00048828125,-0.00048828125)">
   <path d="M 580,1141 L 1163,571 580,0 -4,571 580,1141 Z"/>
  </g>
  <g id="bullet-char-template-57354" transform="scale(0.00048828125,-0.00048828125)">
   <path d="M 8,1128 L 1137,1128 1137,0 8,0 8,1128 Z"/>
  </g>
  <g id="bullet-char-template-10146" transform="scale(0.00048828125,-0.00048828125)">
   <path d="M 174,0 L 602,739 174,1481 1456,739 174,0 Z M 1358,739 L 309,1346 659,739 1358,739 Z"/>
  </g>
  <g id="bullet-char-template-10132" transform="scale(0.00048828125,-0.00048828125)">
   <path d="M 2015,739 L 1276,0 717,0 1260,543 174,543 174,936 1260,936 717,1481 1274,1481 2015,739 Z"/>
  </g>
  <g id="bullet-char-template-10007" transform="scale(0.00048828125,-0.00048828125)">
   <path d="M 0,-2 C -7,14 -16,27 -25,37 L 356,567 C 262,823 215,952 215,954 215,979 228,992 255,992 264,992 276,990 289,987 310,991 331,999 354,1012 L 381,999 492,748 772,1049 836,1024 860,1049 C 881,1039 901,1025 922,1006 886,937 835,863 770,784 769,783 710,716 594,584 L 774,223 C 774,196 753,168 711,139 L 727,119 C 717,90 699,76 672,76 641,76 570,178 457,381 L 164,-76 C 142,-110 111,-127 72,-127 30,-127 9,-110 8,-76 1,-67 -2,-52 -2,-32 -2,-23 -1,-13 0,-2 Z"/>
  </g>
  <g id="bullet-char-template-10004" transform="scale(0.00048828125,-0.00048828125)">
   <path d="M 285,-33 C 182,-33 111,30 74,156 52,228 41,333 41,471 41,549 55,616 82,672 116,743 169,778 240,778 293,778 328,747 346,684 L 369,508 C 377,444 397,411 428,410 L 1163,1116 C 1174,1127 1196,1133 1229,1133 1271,1133 1292,1118 1292,1087 L 1292,965 C 1292,929 1282,901 1262,881 L 442,47 C 390,-6 338,-33 285,-33 Z"/>
  </g>
  <g id="bullet-char-template-9679" transform="scale(0.00048828125,-0.00048828125)">
   <path d="M 813,0 C 632,0 489,54 383,161 276,268 223,411 223,592 223,773 276,916 383,1023 489,1130 632,1184 813,1184 992,1184 1136,1130 1245,1023 1353,916 1407,772 1407,592 1407,412 1353,268 1245,161 1136,54 992,0 813,0 Z"/>
  </g>
  <g id="bullet-char-template-8226" transform="scale(0.00048828125,-0.00048828125)">
   <path d="M 346,457 C 273,457 209,483 155,535 101,586 74,649 74,723 74,796 101,859 155,911 209,963 273,989 346,989 419,989 480,963 531,910 582,859 608,796 608,723 608,648 583,586 532,535 482,483 420,457 346,457 Z"/>
  </g>
  <g id="bullet-char-template-8211" transform="scale(0.00048828125,-0.00048828125)">
   <path d="M -4,459 L 1135,459 1135,606 -4,606 -4,459 Z"/>
  </g>
  <g id="bullet-char-template-61548" transform="scale(0.00048828125,-0.00048828125)">
   <path d="M 173,740 C 173,903 231,1043 346,1159 462,1274 601,1332 765,1332 928,1332 1067,1274 1183,1159 1299,1043 1357,903 1357,740 1357,577 1299,437 1183,322 1067,206 928,148 765,148 601,148 462,206 346,322 231,437 173,577 173,740 Z"/>
  </g>
 </defs>
 <defs class="TextEmbeddedBitmaps"/>
 <g>
  <g id="id2" class="Master_Slide">
   <g id="bg-id2" class="Background"/>
   <g id="bo-id2" class="BackgroundObjects"/>
  </g>
 </g>
 <g class="SlideGroup">
  <g>
   <g id="container-id1">
    <g id="id1" class="Slide" clip-path="url(#presentation_clip_path)">
     <g class="Page">
      <g class="Group">
       <g class="com.sun.star.drawing.PolyPolygonShape">
        <g id="id3">
         <rect class="BoundingBox" stroke="none" fill="none" x="0" y="49" width="14854" height="14868"/>
        </g>
       </g>
       <g class="com.sun.star.drawing.PolyPolygonShape">
        <g id="id4">
         <rect class="BoundingBox" stroke="none" fill="none" x="0" y="49" width="14840" height="14854"/>
         <path fill="rgb(255,255,255)" stroke="none" d="M 11857,190 L 12602,372 13221,583 13713,823 14079,1090 14360,1371 14571,1652 14698,1934 14782,2173 14810,2384 14838,2567 14810,2665 14810,7081 14782,7616 14669,8080 14501,8460 14290,8755 14023,9022 13755,9233 13460,9388 13179,9500 12897,9585 12658,9641 12447,9669 12264,9697 7314,9697 6737,9726 6259,9852 5837,10021 5513,10260 5232,10513 4993,10823 4838,11118 4712,11413 4627,11723 4571,11976 4543,12187 4529,12370 4529,14901 2672,14901 2504,14887 2264,14831 2011,14718 1730,14578 1421,14353 1125,14057 830,13692 563,13199 338,12595 155,11863 42,10991 0,9979 56,8952 183,8094 394,7363 647,6786 956,6308 1280,5942 1617,5675 1969,5464 2307,5351 2602,5253 2869,5225 3066,5211 3207,5211 3249,5225 10014,5225 10014,4536 5176,4536 5162,2243 5134,1948 5190,1666 5274,1399 5415,1174 5626,963 5879,766 6188,612 6568,457 6990,330 7468,232 7989,162 8594,105 9226,63 9930,49 10956,91 11857,190 Z M 6639,1849 L 6456,2102 6385,2454 6456,2792 6639,3073 6920,3256 7243,3326 7609,3256 7862,3073 8059,2792 8129,2454 8059,2102 7862,1849 7609,1652 7243,1582 6920,1652 6639,1849 Z"/>
        </g>
       </g>
       <g class="com.sun.star.drawing.PolyPolygonShape">
        <g id="id5">
         <rect class="BoundingBox" stroke="none" fill="none" x="5147" y="5084" width="14854" height="14868"/>
        </g>
       </g>
       <g class="com.sun.star.drawing.PolyPolygonShape">
        <g id="id6">
         <rect class="BoundingBox" stroke="none" fill="none" x="5147" y="5084" width="14812" height="14854"/>
         <path fill="rgb(178,178,178)" stroke="none" d="M 17468,5126 L 17693,5169 17961,5267 18256,5422 18551,5647 18861,5928 19142,6322 19395,6814 19648,7405 19803,8150 19930,9008 19958,10035 19930,11048 19789,11906 19592,12623 19325,13214 19030,13678 18692,14057 18340,14325 17989,14522 17679,14662 17384,14733 17117,14775 16906,14803 16779,14775 9972,14775 9972,15464 14810,15464 14810,17756 14824,18052 14796,18333 14684,18586 14543,18825 14346,19036 14093,19233 13769,19388 13404,19529 12982,19655 12504,19782 11969,19852 11392,19894 10745,19936 10056,19936 9001,19922 8115,19796 7370,19613 6765,19430 6273,19177 5907,18896 5626,18614 5415,18333 5288,18066 5204,17813 5162,17616 5148,17433 5148,17335 5148,12918 5204,12370 5302,11934 5485,11540 5696,11230 5935,10963 6217,10766 6498,10612 6807,10485 7060,10401 7314,10358 7539,10330 7722,10316 7820,10288 12658,10288 13221,10260 13713,10133 14135,9965 14473,9726 14740,9472 14965,9191 15148,8882 15260,8586 15331,8291 15401,8024 15429,7799 15443,7616 15443,5084 17187,5084 17286,5084 17468,5126 Z M 12110,16927 L 11927,17194 11857,17545 11927,17883 12110,18164 12377,18347 12714,18403 13066,18347 13333,18164 13530,17883 13601,17545 13530,17194 13333,16927 13066,16730 12714,16659 12377,16730 12110,16927 Z"/>
        </g>
       </g>
      </g>
     </g>
    </g>
   </g>
  </g>
 </g>
</svg>